<svg id="svg" xmlns="http://www.w3.org/2000/svg" xmlns:xlink="http://www.w3.org/1999/xlink" width="400" height="315.9235668789809" viewBox="0, 0, 400,315.9235668789809"><g id="svgg"><path id="path0" d="M353.704 8.322 C 345.227 11.253,340.924 14.797,315.924 39.435 C 266.144 88.494,249.696 101.459,237.471 101.274 C 227.963 101.130,183.647 92.836,175.827 89.737 C 171.344 87.960,170.997 87.582,165.581 78.556 C 144.733 43.819,107.947 37.856,71.316 63.276 C 62.924 69.100,59.511 70.770,51.573 72.938 C 43.652 75.101,26.061 83.703,26.551 85.174 C 26.747 85.764,31.472 86.972,37.678 88.019 C 69.858 93.447,75.615 98.640,86.384 131.949 C 101.185 177.727,117.939 199.219,148.792 212.007 C 163.102 217.938,163.605 220.135,153.928 234.445 C 136.152 260.730,135.316 261.359,117.622 261.775 C 107.809 262.005,106.118 262.271,102.409 264.162 C 93.373 268.771,92.284 275.071,101.237 270.940 C 104.177 269.584,108.493 268.227,110.828 267.926 L 115.074 267.378 112.162 268.933 C 108.538 270.869,105.742 274.551,106.465 276.436 C 106.957 277.716,107.264 277.687,109.815 276.110 C 118.490 270.748,147.524 269.975,155.292 274.898 C 157.938 276.574,159.229 275.308,157.885 272.357 C 156.643 269.632,152.737 267.707,146.063 266.532 C 137.869 265.089,139.126 263.065,164.032 237.613 C 180.090 221.203,179.675 221.419,195.329 221.304 C 214.789 221.160,215.283 223.761,201.278 252.654 C 189.618 276.709,187.924 278.289,174.699 277.442 C 158.789 276.423,146.072 281.640,146.072 289.187 C 146.072 292.204,147.062 292.281,151.213 289.585 C 155.065 287.083,163.384 284.469,167.270 284.541 C 169.104 284.574,168.827 284.892,165.422 286.665 C 161.146 288.891,159.660 290.801,159.660 294.070 C 159.660 297.066,160.461 297.390,163.141 295.482 C 172.772 288.624,210.357 287.816,215.780 294.350 C 217.574 296.512,219.360 295.815,218.713 293.206 C 217.498 288.310,211.551 285.114,200.168 283.240 C 193.383 282.124,195.147 278.447,217.524 247.079 C 233.743 224.343,242.419 213.191,257.969 195.092 C 266.852 184.753,267.237 184.508,276.960 183.015 C 289.923 181.025,319.439 173.312,327.965 169.686 C 336.062 166.242,333.705 163.650,316.207 156.757 C 300.653 150.630,288.747 144.488,288.747 142.591 C 288.747 136.433,310.196 110.409,341.942 78.048 C 372.103 47.304,376.762 41.846,381.519 31.680 C 387.349 19.221,384.271 8.243,375.737 11.060 C 372.970 11.973,372.640 11.872,370.343 9.413 C 367.399 6.262,360.895 5.835,353.704 8.322 " stroke="none" fill="#5690ac" fill-rule="evenodd"></path></g></svg>